<svg id="Icon" xmlns="http://www.w3.org/2000/svg" viewBox="0 0 38 38">
  <defs>
    <style>
      .cls-1, .cls-3 {
        fill: #fff;
      }

      .cls-1 {
        stroke: #fc5185;
      }

      .cls-2 {
        fill: #fc5185;
      }

      .cls-4, .cls-7 {
        fill: #364f6b;
      }

      .cls-5, .cls-7 {
        stroke: none;
      }

      .cls-6 {
        fill: none;
      }
    </style>
  </defs>
  <g id="Icon.BG" class="cls-1">
    <circle class="cls-5" cx="19" cy="19" r="19"/>
    <circle class="cls-6" cx="19" cy="19" r="18.5"/>
  </g>
  <path id="trend-up-icon" class="cls-2" d="M9,6h3.6L9,9.6l-4-4L.3,10.3l1.4,1.4L5,8.4l4,4,5-5V11h2V4H9Z" transform="translate(10.7 11)"/>
  <g id="Icon-2" data-name="Icon">
    <g id="Icon.BG-2" data-name="Icon.BG" class="cls-3">
      <path class="cls-5" d="M 19 37.5 C 16.50230026245117 37.5 14.07956981658936 37.01092910766602 11.79911994934082 36.04637908935547 C 9.596209526062012 35.11463165283203 7.617690086364746 33.7806396484375 5.918519973754883 32.08147811889648 C 4.219359874725342 30.38231086730957 2.885370016098022 28.40378952026367 1.953619956970215 26.20088005065918 C 0.9890699982643127 23.92042922973633 0.5 21.49769973754883 0.5 19 C 0.5 16.50230026245117 0.9890699982643127 14.07956981658936 1.953619956970215 11.79911994934082 C 2.885370016098022 9.596209526062012 4.219359874725342 7.617690086364746 5.918519973754883 5.918519973754883 C 7.617690086364746 4.219359874725342 9.596209526062012 2.885370016098022 11.79911994934082 1.953619956970215 C 14.07956981658936 0.9890699982643127 16.50230026245117 0.5 19 0.5 C 21.49769973754883 0.5 23.92042922973633 0.9890699982643127 26.20088005065918 1.953619956970215 C 28.40378952026367 2.885370016098022 30.38231086730957 4.219359874725342 32.08147811889648 5.918519973754883 C 33.7806396484375 7.617690086364746 35.11463165283203 9.596209526062012 36.04637908935547 11.79911994934082 C 37.01092910766602 14.07956981658936 37.5 16.50230026245117 37.5 19 C 37.5 21.49769973754883 37.01092910766602 23.92042922973633 36.04637908935547 26.20088005065918 C 35.11463165283203 28.40378952026367 33.7806396484375 30.38231086730957 32.08147811889648 32.08147811889648 C 30.38231086730957 33.7806396484375 28.40378952026367 35.11463165283203 26.20088005065918 36.04637908935547 C 23.92042922973633 37.01092910766602 21.49769973754883 37.5 19 37.5 Z"/>
      <path class="cls-7" d="M 19 1 C 14.19202995300293 1 9.671829223632812 2.872329711914062 6.272079467773438 6.272079467773438 C 2.872329711914062 9.671829223632812 1 14.19202995300293 1 19 C 1 23.80797004699707 2.872329711914062 28.32817077636719 6.272079467773438 31.72792053222656 C 9.671829223632812 35.12767028808594 14.19202995300293 37 19 37 C 23.80797004699707 37 28.32817077636719 35.12767028808594 31.72792053222656 31.72792053222656 C 35.12767028808594 28.32817077636719 37 23.80797004699707 37 19 C 37 14.19202995300293 35.12767028808594 9.671829223632812 31.72792053222656 6.272079467773438 C 28.32817077636719 2.872329711914062 23.80797004699707 1 19 1 M 19 0 C 29.49341011047363 0 38 8.506589889526367 38 19 C 38 29.49341011047363 29.49341011047363 38 19 38 C 8.506589889526367 38 0 29.49341011047363 0 19 C 0 8.506589889526367 8.506589889526367 0 19 0 Z"/>
    </g>
    <g id="Customers" transform="translate(-9 -317)">
      <g id="icon_customers" transform="translate(-200 237)">
        <path id="Union_10" data-name="Union 10" class="cls-4" d="M-4-310a6.018,6.018,0,0,1,6-6H4a6.018,6.018,0,0,1,6,6Zm2.6-2H7.5A4.033,4.033,0,0,0,4-314H2.1A4.035,4.035,0,0,0-1.4-312Zm.4-9v-1a4.012,4.012,0,0,1,4-4,4.012,4.012,0,0,1,4,4v1a4.012,4.012,0,0,1-4,4A4.012,4.012,0,0,1-1-321Zm2-1v1a2.006,2.006,0,0,0,2,2,2.006,2.006,0,0,0,2-2v-1a2.006,2.006,0,0,0-2-2A2.006,2.006,0,0,0,1-322Z" transform="translate(225 417)"/>
      </g>
    </g>
  </g>
</svg>
