<svg xmlns="http://www.w3.org/2000/svg" viewBox="0 0 21 23">
  <defs>
    <style>
      .cls-1 {
        fill: #bcbccb;
      }

      .cls-2 {
        fill: #fc5185;
        stroke: #fff;
        stroke-width: 2px;
      }

      .cls-3 {
        stroke: none;
      }

      .cls-4 {
        fill: none;
      }
    </style>
  </defs>
  <g id="Notification" transform="translate(0 2)">
    <path id="Notification_Icon" data-name="Notification Icon" class="cls-1" d="M6,14h4a2,2,0,0,1-4,0ZM1,13a1,1,0,0,1,0-2h.5A4.354,4.354,0,0,0,3,8V5A4.952,4.952,0,0,1,8,0a4.951,4.951,0,0,1,5,5V8a4.351,4.351,0,0,0,1.5,3H15a1,1,0,0,1,0,2Z" transform="translate(0 5)"/>
    <g id="Notification_Badge" data-name="Notification Badge" class="cls-2" transform="translate(11)">
      <circle class="cls-3" cx="4" cy="4" r="4"/>
      <circle class="cls-4" cx="4" cy="4" r="5"/>
    </g>
  </g>
</svg>
