<svg xmlns="http://www.w3.org/2000/svg" viewBox="0 0 36 36">
  <defs>
    <style>
      .cls-1 {
        fill: #2a7124;
      }
    </style>
  </defs>
  <g id="Icon" transform="translate(-10 -10)">
    <path id="Tracé_400" data-name="Tracé 400" class="cls-1" d="M28,46A18,18,0,1,0,10,28,18.02,18.02,0,0,0,28,46Zm0-34.8A16.8,16.8,0,1,1,11.2,28,16.819,16.819,0,0,1,28,11.2Z"/>
    <path id="Tracé_401" data-name="Tracé 401" class="cls-1" d="M27.7,29.7a1.31,1.31,0,0,1,1.5,1.5h1.2a2.523,2.523,0,0,0-2.7-2.7A2.523,2.523,0,0,0,25,31.2h1.2A1.31,1.31,0,0,1,27.7,29.7Z" transform="translate(-6 -7.4)"/>
    <path id="Tracé_402" data-name="Tracé 402" class="cls-1" d="M48.7,29.7a1.31,1.31,0,0,1,1.5,1.5h1.2a2.7,2.7,0,0,0-5.4,0h1.2A1.31,1.31,0,0,1,48.7,29.7Z" transform="translate(-14.4 -7.4)"/>
    <path id="Tracé_403" data-name="Tracé 403" class="cls-1" d="M31.791,55.6c5.106,0,9.573-3.275,11.951-8.762L44.1,46H19.477l.363.838C22.218,52.325,26.685,55.6,31.791,55.6Zm10.46-8.4c-2.254,4.527-6.109,7.2-10.46,7.2s-8.206-2.673-10.46-7.2Z" transform="translate(-3.791 -14.4)"/>
  </g>
</svg>
