<svg xmlns="http://www.w3.org/2000/svg" viewBox="0 0 41.958 41.958">
  <defs>
    <style>
      .cls-1 {
        fill: #daf7e8;
      }

      .cls-2 {
        fill: #4ad991;
      }
    </style>
  </defs>
  <g id="Icon" transform="translate(0)">
    <circle id="Icon.BG" class="cls-1" cx="20.979" cy="20.979" r="20.979" transform="translate(0 0)"/>
    <path id="Process" class="cls-2" d="M13.913,13.251A7.7,7.7,0,0,1,8.5,15.459a7.422,7.422,0,0,1-5.409-2.208,7.271,7.271,0,0,1-2.1-4.2L3.2,8.723A5.966,5.966,0,0,0,4.747,11.7a5.534,5.534,0,0,0,7.73,0L10.158,9.386l7.066-.774-.882,7.068ZM.772,0,3.2,2.429a7.8,7.8,0,0,1,10.93,0,7.28,7.28,0,0,1,2.1,4.2l-2.208.333a5.963,5.963,0,0,0-1.546-2.982,5.534,5.534,0,0,0-7.73,0l2.32,2.319L0,7.068Z" transform="translate(12.147 13.25)"/>
  </g>
</svg>
