<svg xmlns="http://www.w3.org/2000/svg" viewBox="0 0 39 39">
  <defs>
    <style>
      .cls-1 {
        fill: #cc890a;
      }
    </style>
  </defs>
  <g id="Icon" transform="translate(-29)">
    <path id="Tracé_388" data-name="Tracé 388" class="cls-1" d="M30.85,30.925a2.925,2.925,0,1,0-2.925,2.925A2.929,2.929,0,0,0,30.85,30.925Zm-4.55,0a1.625,1.625,0,1,1,1.625,1.625A1.627,1.627,0,0,1,26.3,30.925Z" transform="translate(13.75 -16.95)"/>
    <path id="Tracé_389" data-name="Tracé 389" class="cls-1" d="M48.925,28a2.925,2.925,0,1,0,2.925,2.925A2.929,2.929,0,0,0,48.925,28Zm0,4.55a1.625,1.625,0,1,1,1.625-1.625A1.627,1.627,0,0,1,48.925,32.55Z" transform="translate(6.4 -16.95)"/>
    <path id="Tracé_390" data-name="Tracé 390" class="cls-1" d="M29.5,11A19.5,19.5,0,1,0,49,30.5,19.522,19.522,0,0,0,29.5,11Zm0,37.7A18.2,18.2,0,1,1,47.7,30.5,18.221,18.221,0,0,1,29.5,48.7Z" transform="translate(19 -11)"/>
    <path id="Tracé_391" data-name="Tracé 391" class="cls-1" d="M28.385,48.593l-2,1.535.793,1.031,2-1.535a9.945,9.945,0,0,1,12.117,0l2,1.535.793-1.031-2-1.535A11.252,11.252,0,0,0,28.385,48.593Z" transform="translate(13.264 -23.343)"/>
  </g>
</svg>
