<svg xmlns="http://www.w3.org/2000/svg" viewBox="0 0 39 39">
  <defs>
    <style>
      .cls-1 {
        fill: #960808;
      }
    </style>
  </defs>
  <g id="Icon" transform="translate(-29)">
    <path id="Tracé_386" data-name="Tracé 386" class="cls-1" d="M31.5,11A19.5,19.5,0,1,0,51,30.5,19.522,19.522,0,0,0,31.5,11ZM19.818,44.442a11.687,11.687,0,0,1,23.364,0,18.155,18.155,0,0,1-23.364,0Zm24.591-1.126a12.993,12.993,0,0,0-25.818,0,18.2,18.2,0,1,1,25.818,0Z" transform="translate(17 -11)"/>
    <path id="Tracé_387" data-name="Tracé 387" class="cls-1" d="M35.933,29.88,25.1,26.056l-.433,1.227,3.429,1.21a2.923,2.923,0,1,0,4.587,2.4,2.874,2.874,0,0,0-.135-.83l3.385,1.195,3.385-1.195a2.874,2.874,0,0,0-.135.83,2.925,2.925,0,1,0,4.587-2.4l3.429-1.21-.433-1.227Zm-6.175,2.64a1.625,1.625,0,1,1,1.625-1.625A1.626,1.626,0,0,1,29.758,32.52Zm12.35,0a1.625,1.625,0,1,1,1.625-1.625A1.626,1.626,0,0,1,42.108,32.52Z" transform="translate(12.567 -16.27)"/>
  </g>
</svg>
