<svg xmlns="http://www.w3.org/2000/svg" viewBox="0 0 41.958 41.958">
  <defs>
    <style>
      .cls-1 {
        fill: #f0f0f7;
      }

      .cls-2 {
        fill: #b4b4c6;
      }
    </style>
  </defs>
  <g id="Icon" transform="translate(0)">
    <circle id="Icon.BG" class="cls-1" cx="20.979" cy="20.979" r="20.979" transform="translate(0 0)"/>
    <path id="time-countdown" class="cls-2" d="M0,9.936A7.682,7.682,0,0,1,7.729,2.207a7.558,7.558,0,0,1,4.639,1.547l.993-1-.885-.883a1.067,1.067,0,0,1,0-1.545,1.069,1.069,0,0,1,1.547,0l3.313,3.313a1.068,1.068,0,0,1,0,1.545,1.069,1.069,0,0,1-1.547,0l-.883-.883-.994.993a7.559,7.559,0,0,1,1.545,4.637,7.682,7.682,0,0,1-7.729,7.729A7.682,7.682,0,0,1,0,9.936Zm2.209,0a5.468,5.468,0,0,0,5.52,5.522A5.468,5.468,0,0,0,13.25,9.936a5.467,5.467,0,0,0-5.521-5.52A5.466,5.466,0,0,0,2.209,9.936Zm4.416,1.1V6.624H8.834V8.833h2.208V11.04Z" transform="translate(12.146 12.146)"/>
  </g>
</svg>
