<svg xmlns="http://www.w3.org/2000/svg" viewBox="0 0 38.598 38.598">
  <defs>
    <style>
      .cls-1 {
        fill: #3e9f36;
        fill-rule: evenodd;
      }
    </style>
  </defs>
  <g id="Groupe_319" data-name="Groupe 319" transform="translate(0)">
    <path id="Tracé_404" data-name="Tracé 404" class="cls-1" d="M29.3,10A19.3,19.3,0,1,1,10,29.3,19.3,19.3,0,0,1,29.3,10ZM41.5,21.636c-.7-.654-1.355-1.308-2.009-2.009a1.185,1.185,0,0,0-1.682,0c-4.252,4.3-8.551,8.551-12.85,12.85-1.355-1.4-2.757-2.757-4.159-4.159a1.129,1.129,0,0,0-1.636,0L17.15,30.327a1.185,1.185,0,0,0,0,1.682c2.336,2.336,4.673,4.673,7.009,6.963a1.129,1.129,0,0,0,1.636,0q7.85-7.78,15.7-15.654A1.185,1.185,0,0,0,41.5,21.636Z" transform="translate(-10 -10)"/>
  </g>
</svg>
