<svg id="Calque_1" data-name="Calque 1" xmlns="http://www.w3.org/2000/svg" viewBox="0 0 333.76 378.14"><defs><style>.cls-1,.cls-6{fill:#4abcc6;}.cls-2{fill:#f5f4f5;}.cls-3,.cls-8{fill:#ea5284;}.cls-4{fill:#fff;}.cls-5{fill:#364f6b;}.cls-6{font-size:60px;font-family:ArialRoundedMTBold, Arial Rounded MT Bold;}.cls-7{fill:#1d1d1b;}.cls-8{letter-spacing:-0.01em;}</style></defs><title>LogoBehappikFinal</title><path class="cls-1" d="M276.07,235.24s4.3-26.38,9.82-44.17c0,0-39.26-50.31-9.82-81.6,0,0,35.58-48.46,99.39-5.52,0,0,51.53-20.85,115.94-1.22,0,0,70.55-38.65,97.54,8,0,0,28.22,41.72-10.43,75.46,0,0,69.33,147.84-85.27,198.15,0,0-65,19.63-133.73-5.52,0,0-57.14-18.41-74.85-68.1C284.66,310.69,270.08,265.18,276.07,235.24Z" transform="translate(-265.12 -86.2)"/><path class="cls-2" d="M306.13,191.07S340.71,108.86,432,112.54c0,0,89.13-8,132.4,87.11,0,0,47.24,124.54-65.64,162.57,0,0-80.36,30.68-160.11-14.11C338.65,348.11,263.19,313.31,306.13,191.07Z" transform="translate(-265.12 -86.2)"/><path class="cls-3" d="M465.64,215.6s-30.06,30.06,14.72,73c0,0,39.26,55.21,74.84,17.79,0,0,34.36-37.42-14.11-79.14C541.09,227.26,509.81,184.32,465.64,215.6Z" transform="translate(-265.12 -86.2)"/><path class="cls-3" d="M397.58,219s27.89,27.89-13.66,67.73c0,0-36.42,51.22-69.43,16.5,0,0-31.88-34.71,13.09-73.42C327.58,229.8,356.6,190,397.58,219Z" transform="translate(-265.12 -86.2)"/><ellipse class="cls-4" cx="226.5" cy="156.9" rx="16.53" ry="15.3"/><ellipse class="cls-4" cx="108.9" cy="156.22" rx="16.53" ry="15.3"/><ellipse class="cls-5" cx="167.19" cy="205.16" rx="25.57" ry="20.64"/><path class="cls-1" d="M397.39,321.27s-3.68,1.61-2,6.45c0,0,9,19.32,40.84,17.94s1,.07,1,.07,20.35,1.66,33.69-18.24c0,0,2-3.91-4.37-7.37,0,0-4.25-.34-4.94,1.38,0,0-9.44,13.12-26.34,12.43,0,0-14.5,4.14-30.37-11.62C405,322.31,402.79,318.74,397.39,321.27Z" transform="translate(-265.12 -86.2)"/><text class="cls-6" transform="translate(16.11 365.48)">Be<tspan class="cls-7" x="78.81" y="0"> </tspan><tspan class="cls-3" x="93.81" y="0">H</tspan><tspan class="cls-8" x="139.39" y="0">a</tspan><tspan class="cls-3" x="174.26" y="0">ppik</tspan></text></svg>